<svg xmlns="http://www.w3.org/2000/svg" width="27" height="27" viewBox="0 0 27 27">
    <g fill="#F39292" fill-rule="evenodd" transform="translate(1 1)">
        <circle cx="12.5" cy="12.5" r="12.5" fill-opacity=".18" fill-rule="nonzero" stroke="#F39292"/>
        <path d="M16.46 9.642H8.79a1.46 1.46 0 0 0-1.462 1.46l.792 8.405c0 .808.654 1.46 1.46 1.46h6.211a1.46 1.46 0 0 0 1.461-1.46l.67-8.405a1.46 1.46 0 0 0-1.461-1.46zm-5.783 8.769a.73.73 0 0 1-1.461 0v-6.578a.73.73 0 1 1 1.46 0v6.578zm2.557 0a.73.73 0 0 1-1.46 0v-6.578a.73.73 0 1 1 1.46 0v6.578zm2.557 0a.73.73 0 0 1-1.46 0v-6.578a.73.73 0 1 1 1.46 0v6.578zM8.4 8.91l8.843-2.275a.911.911 0 0 0 .658-1.112.915.915 0 0 0-1.111-.657l-2.72.699a1.09 1.09 0 0 0-1.177-.452l-1.06.275c-.461.118-.774.514-.815.963l-3.073.79a.914.914 0 0 0 .454 1.769z"/>
    </g>
</svg>
