<svg xmlns="http://www.w3.org/2000/svg" width="30.289" height="21.817" viewBox="0 0 30.289 21.817">
  <g id="Group_2" data-name="Group 2" transform="translate(-1059.763 -1094.615)">
    <path id="Path_1" data-name="Path 1" d="M1069.464,1113.481c.2-.191.361-.333.511-.484l17.719-17.73a4.547,4.547,0,0,1,.431-.4,1.22,1.22,0,0,1,1.519.03,1.265,1.265,0,0,1,.206,1.61,2.892,2.892,0,0,1-.354.393q-9.364,9.357-18.73,18.712c-.1.1-.191.2-.291.293a1.243,1.243,0,0,1-2.04-.007c-1.148-1.132-2.279-2.281-3.418-3.421q-2.334-2.336-4.67-4.671c-.568-.57-.725-1.158-.46-1.629a1.224,1.224,0,0,1,2.005-.231c1.123,1.072,2.206,2.185,3.3,3.285q1.936,1.943,3.866,3.891C1069.171,1113.231,1069.292,1113.328,1069.464,1113.481Z" fill="#fff" fill-rule="evenodd"/>
  </g>
</svg>
