<svg xmlns="http://www.w3.org/2000/svg" id="search_icon" width="18.726" height="18.728" viewBox="0 0 18.726 18.728">
    <defs>
        <style>
            .cls-1{fill:#949494}
        </style>
    </defs>
    <path id="Path_1" d="M5396.606 88.878a6.5 6.5 0 0 1 .888-3.442 7.6 7.6 0 0 1 2.873-3.027 7.823 7.823 0 0 1 4.792-1.111 7.7 7.7 0 0 1 3.19 1.045 7.523 7.523 0 0 1 2.4 2.182 10.5 10.5 0 0 1 .974 1.864 7.087 7.087 0 0 1 .355 4.061 8.737 8.737 0 0 1-.663 1.994c-.19.455-.52.85-.729 1.3a.639.639 0 0 0 .07.577c1.327 1.36 2.68 2.695 4.021 4.041a2.674 2.674 0 0 1 .461.563.9.9 0 0 1-.139.939.914.914 0 0 1-1.076-.1c-.52-.5-1.032-1-1.542-1.509-.946-.943-1.879-1.9-2.842-2.824a.6.6 0 0 0-.573-.069 8.369 8.369 0 0 1-2.506 1.23 7.621 7.621 0 0 1-3.061.229 7.812 7.812 0 0 1-6.9-7.948zm7.808-6.03a6.248 6.248 0 1 0 6.252 6.265 6.265 6.265 0 0 0-6.252-6.266z" class="cls-1" data-name="Path 1" transform="translate(-5396.592 -81.269)"/>
</svg>
